<svg width="51" height="51" viewBox="0 0 51 51" fill="none" xmlns="http://www.w3.org/2000/svg">
<g id="Group 10">
<g id="Ellipse 2" filter="url(#filter0_d_42_199)">
<circle cx="25.5" cy="21.5" r="21.5" fill="white"/>
</g>
<path id="Vector" d="M26.0001 29.3212L25.6665 29.0225C24.0628 27.5865 22.7393 26.3514 21.6978 25.3179C20.6566 24.2848 19.8249 23.3777 19.208 22.5983C18.5916 21.8196 18.1429 21.1012 17.8848 20.4463C17.6306 19.8013 17.5 19.1516 17.5 18.5C17.5 17.3763 17.8799 16.413 18.6464 15.6464C19.413 14.8799 20.3763 14.5 21.5 14.5M26.0001 29.3212L21.5 15M26.0001 29.3212L26.3336 29.0224C27.9373 27.5858 29.2607 26.3503 30.3022 25.3169C31.3433 24.2838 32.1751 23.3771 32.7919 22.5985L32.7922 22.5982C33.4085 21.8188 33.8571 21.1001 34.1152 20.4453C34.3694 19.8004 34.5 19.151 34.5 18.5C34.5 17.3763 34.1201 16.413 33.3536 15.6464C32.587 14.8799 31.6237 14.5 30.5 14.5C29.6164 14.5 28.7957 14.7507 28.049 15.2451C27.4081 15.6693 26.9256 16.2046 26.6181 16.85H25.3818M26.0001 29.3212L25.05 17.35M21.5 14.5V15M21.5 14.5C21.4999 14.5 21.4997 14.5 21.4996 14.5L21.5 15M21.5 14.5C22.3838 14.4993 23.2046 14.7502 23.9513 15.2453C24.5919 15.67 25.0743 16.2051 25.3818 16.85M21.5 15C22.2833 14.9993 23.0083 15.22 23.675 15.662C24.3417 16.104 24.8 16.6667 25.05 17.35M25.3818 16.85H25.05V17.35M25.3818 16.85C25.4325 16.9564 25.4784 17.0658 25.5196 17.1782L25.05 17.35M35.1405 20.5837C34.9036 21.2552 34.479 22.0147 33.8485 22.864C33.2178 23.7133 32.3608 24.6821 31.2714 25.7714C30.1797 26.8632 28.7951 28.1651 27.1157 29.6782C27.1156 29.6783 27.1155 29.6784 27.1153 29.6785L26 30.6785L24.8847 29.6785C24.8845 29.6784 24.8844 29.6783 24.8843 29.6782C23.2049 28.1651 21.8203 26.8632 20.7286 25.7714C19.6392 24.6821 18.7822 23.7133 18.1514 22.8639L18.1513 22.8638C17.5202 22.0146 17.0958 21.2552 16.8597 20.5841C16.6201 19.9032 16.5006 19.2092 16.5 18.4998C16.5 17.0577 16.978 15.8792 17.9286 14.9286C18.8792 13.9779 20.0578 13.5 21.5 13.5C22.2936 13.5 23.0462 13.6673 23.763 14.0028C24.4807 14.3388 25.0982 14.8111 25.619 15.4238L26 15.872L26.381 15.4238C26.9018 14.8111 27.5193 14.3388 28.237 14.0028C28.9538 13.6673 29.7064 13.5 30.5 13.5C31.9422 13.5 33.1208 13.9779 34.0714 14.9286C35.0221 15.8792 35.5 17.0578 35.5 18.5C35.5 19.2092 35.3806 19.903 35.1405 20.5837Z" fill="black" stroke="#950707"/>
</g>
<defs>
<filter id="filter0_d_42_199" x="0" y="0" width="51" height="51" filterUnits="userSpaceOnUse" color-interpolation-filters="sRGB">
<feFlood flood-opacity="0" result="BackgroundImageFix"/>
<feColorMatrix in="SourceAlpha" type="matrix" values="0 0 0 0 0 0 0 0 0 0 0 0 0 0 0 0 0 0 127 0" result="hardAlpha"/>
<feOffset dy="4"/>
<feGaussianBlur stdDeviation="2"/>
<feComposite in2="hardAlpha" operator="out"/>
<feColorMatrix type="matrix" values="0 0 0 0 0 0 0 0 0 0 0 0 0 0 0 0 0 0 0.25 0"/>
<feBlend mode="normal" in2="BackgroundImageFix" result="effect1_dropShadow_42_199"/>
<feBlend mode="normal" in="SourceGraphic" in2="effect1_dropShadow_42_199" result="shape"/>
</filter>
</defs>
</svg>
