
  <svg
    xmlns="http://www.w3.org/2000/svg"
    width={40}
    height={30}
    fill="none"
    {...props}
  >
    <g fill="#000" clipPath="url(#a)">
      <path d="M20.966.015c-.064-.071-2.36.028-4.36 2.198-1.998 2.167-1.69 4.653-1.645 4.717.045.064 2.85.163 4.64-2.359C21.391 2.05 21.03.088 20.966.015Zm6.214 22c-.09-.18-4.36-2.314-3.962-6.417.398-4.104 3.14-5.23 3.184-5.351.043-.122-1.12-1.481-2.351-2.17a6.922 6.922 0 0 0-2.931-.813c-.203-.006-.906-.178-2.351.217-.953.26-3.1 1.105-3.69 1.138-.593.034-2.355-.978-4.25-1.246-1.214-.235-2.5.245-3.42.615-.92.367-2.667 1.413-3.89 4.194-1.222 2.779-.583 7.181-.125 8.55.457 1.367 1.172 3.607 2.387 5.242 1.08 1.845 2.512 3.126 3.11 3.561.598.435 2.286.724 3.456.126.941-.578 2.64-.91 3.311-.885.67.024 1.99.288 3.341 1.01 1.071.37 2.084.216 3.098-.197 1.014-.414 2.482-1.985 4.196-5.17.65-1.482.947-2.283.887-2.405Z" />
      <path d="M20.966.015c-.064-.071-2.36.028-4.36 2.198-1.998 2.167-1.69 4.653-1.645 4.717.045.064 2.85.163 4.64-2.359C21.391 2.05 21.03.088 20.966.015Zm6.214 22c-.09-.18-4.36-2.314-3.962-6.417.398-4.104 3.14-5.23 3.184-5.351.043-.122-1.12-1.481-2.351-2.17a6.922 6.922 0 0 0-2.931-.813c-.203-.006-.906-.178-2.351.217-.953.26-3.1 1.105-3.69 1.138-.593.034-2.355-.978-4.25-1.246-1.214-.235-2.5.245-3.42.615-.92.367-2.667 1.413-3.89 4.194-1.222 2.779-.583 7.181-.125 8.55.457 1.367 1.172 3.607 2.387 5.242 1.08 1.845 2.512 3.126 3.11 3.561.598.435 2.286.724 3.456.126.941-.578 2.64-.91 3.311-.885.67.024 1.99.288 3.341 1.01 1.071.37 2.084.216 3.098-.197 1.014-.414 2.482-1.985 4.196-5.17.65-1.482.947-2.283.887-2.405Z" />
    </g>
    <defs>
      <clipPath id="a">
        <path fill="#fff" d="M0 0h30v30H0z" />
      </clipPath>
    </defs>
  </svg>

